<svg width="22" height="22" viewBox="0 0 22 22" fill="none" xmlns="http://www.w3.org/2000/svg">
<path d="M13.0938 19.8594C13.5625 19.3906 13.5156 18.6875 13.0938 18.2188L7.42188 12.875L20.875 12.875C21.5312 12.875 22 12.3594 22 11.75V10.25C22 9.59375 21.5312 9.125 20.875 9.125L7.42188 9.125L13.0938 3.73438C13.5156 3.26562 13.5156 2.5625 13.0938 2.09375L12.0625 1.0625C11.5938 0.640625 10.8906 0.640625 10.4688 1.0625L1.32812 10.2031C0.90625 10.625 0.90625 11.3281 1.32812 11.7969L10.4688 20.8906C10.8906 21.3125 11.5938 21.3125 12.0625 20.8906L13.0938 19.8594Z" fill="white"/>
</svg>
