<svg width="260" height="202" viewBox="0 0 260 202" fill="none" xmlns="http://www.w3.org/2000/svg">
<path d="M104.013 164.256C104.044 172.092 102.421 179.841 99.2535 186.974C96.0863 194.108 91.4504 200.455 85.6633 205.583C73.2451 217.184 56.9251 223.417 40.1194 222.978C18.7849 222.978 1.93985 215.377 -10.4156 200.173C-22.7582 185.056 -29.3526 165.884 -28.9855 146.185C-28.9855 99.0222 -16.3486 63.531 8.92497 39.7116C34.1986 15.8922 62.1757 2.70508 92.8564 0.150312V51.8843C77.3954 53.57 62.7584 59.8667 50.7622 69.993C44.5885 74.7216 39.5027 80.7785 35.8631 87.7371C32.2235 94.6957 30.1186 102.387 29.6968 110.268C34.7922 107.727 40.3973 106.441 46.0647 106.511C64.3899 106.511 78.6292 111.834 88.7827 122.478C93.9117 128.053 97.901 134.62 100.516 141.794C103.132 148.968 104.321 156.605 104.013 164.256ZM259.985 164.256C260.024 172.093 258.403 179.845 255.236 186.979C252.068 194.113 247.428 200.46 241.635 205.583C229.217 217.184 212.897 223.417 196.092 222.978C174.806 222.978 158.096 215.377 145.96 200.173C133.766 184.984 127.26 165.843 127.611 146.185C127.611 99.0222 140.113 63.531 165.117 39.7116C190.122 15.8922 218.062 2.65495 248.939 0V51.734C233.512 53.4849 218.926 59.8338 206.991 69.993C200.771 74.6936 195.64 80.7393 191.961 87.7003C188.282 94.6612 186.146 102.366 185.706 110.268C190.788 107.726 196.381 106.44 202.037 106.511C220.338 106.511 234.577 111.834 244.755 122.478C249.884 128.051 253.871 134.618 256.481 141.794C259.09 148.969 260.269 156.607 259.948 164.256H259.985Z" fill="#F3F5F7" fill-opacity="0.1"/>
</svg>
