<svg width="201" height="169" viewBox="0 0 201 169" fill="none" xmlns="http://www.w3.org/2000/svg">
<g opacity="0.5">
<path d="M168.412 104.122C168.178 102.147 166.987 100.45 165.225 99.583C163.464 98.7169 161.416 98.8209 159.748 99.8612L155.728 102.368C155.061 102.784 154.554 103.395 154.262 104.132C153.97 104.871 153.921 105.668 154.12 106.437C154.319 107.207 154.747 107.877 155.358 108.374C155.969 108.872 156.706 109.15 157.488 109.179L157.54 109.181C159.502 109.268 161.354 110.187 162.629 111.707C162.957 112.099 163.355 112.411 163.802 112.631C164.044 112.75 164.302 112.842 164.571 112.905C165.334 113.084 166.116 113.009 166.833 112.69C167.55 112.371 168.134 111.837 168.523 111.146C168.911 110.455 169.067 109.673 168.974 108.882L168.412 104.122Z" fill="#E3E8F0"/>
<path d="M157.717 98.99C158.536 99.0613 159.33 98.7489 159.953 98.1108C160.546 97.5036 160.913 96.6677 160.987 95.7566C161.06 94.8455 160.832 93.9586 160.345 93.2587C159.833 92.5232 159.101 92.0797 158.282 92.0096C156.636 91.8678 155.17 93.3181 155.013 95.2438C154.89 96.7773 155.635 98.1556 156.775 98.724C157.066 98.8693 157.382 98.9617 157.717 98.99Z" fill="#E3E8F0"/>
<path d="M163.81 97.7217C165.501 98.4758 167.634 97.6442 168.566 95.8681C169.497 94.0914 168.88 92.0326 167.19 91.2782C165.5 90.5241 163.366 91.356 162.434 93.1328C161.503 94.9089 162.12 96.9677 163.81 97.7217Z" fill="#E3E8F0"/>
<path d="M168.903 101.161V101.161C169.131 101.382 169.388 101.559 169.665 101.692C170.956 102.315 172.668 101.985 173.847 100.777C174.525 100.082 174.932 99.1979 174.992 98.287C175.055 97.3338 174.736 96.4656 174.094 95.8428C173.451 95.2199 172.571 94.9262 171.616 95.0158C170.704 95.1016 169.828 95.5317 169.15 96.2268C167.719 97.6929 167.608 99.9062 168.903 101.161Z" fill="#E3E8F0"/>
<path d="M176.677 103.711L176.677 103.71C175.865 102.051 173.78 101.505 172.029 102.491C170.279 103.478 169.513 105.631 170.323 107.289C170.618 107.894 171.083 108.351 171.639 108.64C172.608 109.144 173.856 109.136 174.971 108.509C176.721 107.521 177.487 105.369 176.677 103.711Z" fill="#E3E8F0"/>
<path d="M158.412 51.122C158.178 49.1465 156.987 47.4496 155.225 46.583C153.464 45.7169 151.416 45.8209 149.748 46.8612L145.728 49.3684C145.061 49.7841 144.554 50.3945 144.262 51.1324C143.97 51.8707 143.921 52.6679 144.12 53.4375C144.319 54.2071 144.747 54.8768 145.358 55.3742C145.969 55.8716 146.706 56.1497 147.488 56.1788L147.54 56.1807C149.502 56.2679 151.354 57.1867 152.629 58.7073C152.957 59.0991 153.355 59.4112 153.802 59.6309C154.044 59.7502 154.302 59.8423 154.571 59.9053C155.334 60.0835 156.116 60.0093 156.833 59.6901C157.55 59.371 158.134 58.837 158.523 58.1461C158.911 57.4552 159.067 56.6725 158.974 55.8824L158.412 51.122Z" fill="#E3E8F0"/>
<path d="M147.717 45.99C148.536 46.0613 149.33 45.7489 149.953 45.1108C150.546 44.5036 150.913 43.6677 150.987 42.7566C151.06 41.8455 150.832 40.9586 150.345 40.2587C149.833 39.5232 149.101 39.0797 148.282 39.0096C146.636 38.8678 145.17 40.3181 145.013 42.2438C144.89 43.7773 145.635 45.1556 146.775 45.724C147.066 45.8693 147.382 45.9617 147.717 45.99Z" fill="#E3E8F0"/>
<path d="M153.81 44.7217C155.501 45.4758 157.634 44.6442 158.566 42.8681C159.497 41.0914 158.88 39.0326 157.19 38.2782C155.5 37.5241 153.366 38.356 152.434 40.1328C151.503 41.9089 152.12 43.9677 153.81 44.7217Z" fill="#E3E8F0"/>
<path d="M158.903 48.1607V48.161C159.131 48.3821 159.388 48.559 159.665 48.6925C160.956 49.3146 162.668 48.9846 163.847 47.7774C164.525 47.0823 164.932 46.1979 164.992 45.287C165.055 44.3338 164.736 43.4656 164.094 42.8428C163.451 42.2199 162.571 41.9262 161.616 42.0158C160.704 42.1016 159.828 42.5317 159.15 43.2268C157.719 44.6929 157.608 46.9062 158.903 48.1607Z" fill="#E3E8F0"/>
<path d="M166.677 50.7107L166.677 50.7098C165.865 49.0515 163.78 48.5048 162.029 49.4907C160.279 50.4784 159.513 52.6308 160.323 54.2887C160.618 54.8937 161.083 55.351 161.639 55.6398C162.608 56.1435 163.856 56.1359 164.971 55.5091C166.721 54.5214 167.487 52.369 166.677 50.7107Z" fill="#E3E8F0"/>
<path d="M104.294 95.8537C104.014 93.596 102.585 91.6567 100.471 90.6663C98.3566 89.6764 95.8992 89.7953 93.8973 90.9842L89.0732 93.8496C88.2728 94.3247 87.6646 95.0223 87.3145 95.8656C86.9644 96.7094 86.9054 97.6204 87.1435 98.5C87.3823 99.3795 87.8961 100.145 88.6293 100.713C89.3625 101.282 90.2464 101.6 91.1853 101.633L91.2482 101.635C93.6023 101.735 95.8246 102.785 97.3543 104.523C97.749 104.97 98.2261 105.327 98.762 105.578C99.0533 105.714 99.3624 105.82 99.6848 105.892C100.6 106.095 101.539 106.011 102.4 105.646C103.26 105.281 103.961 104.671 104.427 103.881C104.893 103.092 105.08 102.197 104.969 101.294L104.294 95.8537Z" fill="#E3E8F0"/>
<path d="M92.1697 89.9886C93.1255 90.0701 94.052 89.7131 94.7786 88.9837C95.4701 88.2899 95.8984 87.3345 95.9843 86.2933C96.0698 85.252 95.8039 84.2384 95.2358 83.4385C94.6389 82.5979 93.7838 82.0911 92.8291 82.0109C90.9091 81.8489 89.1984 83.5064 89.0155 85.7072C88.8719 87.4598 89.7405 89.035 91.0702 89.6846C91.4097 89.8506 91.7794 89.9562 92.1697 89.9886Z" fill="#E3E8F0"/>
<path d="M99.0687 89.6422C101.001 90.6118 103.439 89.5426 104.504 87.259C105.569 84.9746 104.863 82.3276 102.931 81.3577C100.999 80.3882 98.5613 81.4578 97.4963 83.7422C96.4315 86.0257 97.1369 88.6727 99.0687 89.6422Z" fill="#E3E8F0"/>
<path d="M105.031 93.0408L105.032 93.0412C105.293 93.2939 105.586 93.496 105.903 93.6485C107.378 94.3595 109.335 93.9824 110.682 92.6028C111.457 91.8084 111.922 90.7976 111.991 89.7566C112.063 88.6672 111.699 87.675 110.964 86.9632C110.229 86.2513 109.224 85.9157 108.133 86.018C107.09 86.1161 106.089 86.6077 105.314 87.402C103.679 89.0776 103.552 91.6071 105.031 93.0408Z" fill="#E3E8F0"/>
<path d="M111.677 96.7107L111.677 96.7098C110.865 95.0515 108.78 94.5048 107.029 95.4907C105.279 96.4784 104.513 98.6308 105.323 100.289C105.618 100.894 106.083 101.351 106.639 101.64C107.608 102.144 108.856 102.136 109.971 101.509C111.721 100.521 112.487 98.369 111.677 96.7107Z" fill="#E3E8F0"/>
<path d="M102.176 148.951C101.85 146.27 100.182 143.967 97.7156 142.791C95.2494 141.616 92.3822 141.757 90.0469 143.169L84.4187 146.571C83.485 147.136 82.7754 147.964 82.3669 148.965C81.9584 149.967 81.8896 151.049 82.1675 152.094C82.4461 153.138 83.0455 154.047 83.9009 154.722C84.7562 155.397 85.7875 155.775 86.8829 155.814L86.9563 155.817C89.7029 155.935 92.2954 157.182 94.0802 159.246C94.5403 159.777 95.0969 160.201 95.7223 160.499C96.0622 160.661 96.4227 160.786 96.799 160.871C97.8671 161.113 98.9618 161.013 99.9661 160.579C100.969 160.146 101.788 159.422 102.332 158.484C102.875 157.546 103.094 156.484 102.963 155.412L102.176 148.951Z" fill="#E3E8F0"/>
<path d="M87.6226 141.987C88.7151 142.079 89.7739 141.677 90.6041 140.857C91.3947 140.076 91.8839 139.001 91.9821 137.83C92.0797 136.659 91.7759 135.518 91.1266 134.618C90.4445 133.673 89.4675 133.102 88.3761 133.012C86.1817 132.83 84.2268 134.695 84.0177 137.171C83.8536 139.142 84.8463 140.914 86.3661 141.645C86.7542 141.832 87.1765 141.951 87.6226 141.987Z" fill="#E3E8F0"/>
<path d="M96.3272 141.602C98.501 142.68 101.244 141.492 102.442 138.954C103.64 136.416 102.846 133.475 100.672 132.397C98.4996 131.32 95.7566 132.509 94.5582 135.047C93.3606 137.584 94.1539 140.525 96.3272 141.602Z" fill="#E3E8F0"/>
<path d="M103.161 146.921V146.921C103.455 147.206 103.785 147.433 104.14 147.605C105.8 148.404 108.002 147.98 109.517 146.428C110.389 145.534 110.912 144.397 110.99 143.226C111.071 142.001 110.661 140.884 109.835 140.084C109.008 139.283 107.877 138.905 106.65 139.02C105.477 139.131 104.351 139.684 103.479 140.577C101.639 142.462 101.496 145.308 103.161 146.921Z" fill="#E3E8F0"/>
<path d="M111.631 149.955L111.631 149.954C110.703 148.059 108.321 147.434 106.319 148.561C104.319 149.69 103.444 152.149 104.369 154.044C104.706 154.736 105.237 155.258 105.873 155.588C106.981 156.164 108.407 156.155 109.681 155.439C111.681 154.31 112.556 151.85 111.631 149.955Z" fill="#E3E8F0"/>
</g>
<g style="mix-blend-mode:hard-light" opacity="0.560412">
<path fill-rule="evenodd" clip-rule="evenodd" d="M0 169C0 169 18.2588 123.141 79.8291 119.744C141.4 116.347 169.425 57.7487 169.425 57.7487L200.422 0V169H0Z" fill="#dddd" fill-opacity="0.5"/>
</g>
</svg>
