<svg width="60" height="60" viewBox="0 0 60 60" fill="none" xmlns="http://www.w3.org/2000/svg">
<path fill-rule="evenodd" clip-rule="evenodd" d="M29.9995 17.9741V16.6198H20.11L17.3078 13.8167C15.4058 11.9147 12.8743 10.8661 10.1872 10.8661C7.49292 10.8661 4.96141 11.9147 3.0594 13.8167L2.95058 13.9264C1.04948 15.8275 0 18.359 0 21.0533C0 23.7467 1.04948 26.2791 2.95058 28.1811L4.48028 29.7036L2.95058 31.2342C1.04948 33.1362 0 35.6668 0 38.3611C0 41.0554 1.04948 43.5869 2.95058 45.4889L3.0594 45.5905C4.96141 47.4997 7.49292 48.542 10.1872 48.542C12.8743 48.542 15.4058 47.4997 17.3078 45.5905L20.11 42.7946H29.9995V41.4412H19.548L16.3528 44.6364C14.708 46.2812 12.5155 47.1877 10.1872 47.1877C7.85174 47.1877 5.66555 46.2812 4.01445 44.6364L3.90563 44.5276C0.507202 41.13 0.507202 35.5922 3.91193 32.1884L6.39668 29.7036L3.91193 27.2198C2.26083 25.5749 1.35344 23.3816 1.35344 21.0533C1.35344 18.7241 2.26083 16.5316 3.91193 14.8796L4.01445 14.7789C5.66555 13.1269 7.85174 12.2195 10.1872 12.2195C12.5155 12.2195 14.708 13.1269 16.3528 14.7789L19.548 17.9741H29.9995Z" fill="#F3B62C"/>
<path fill-rule="evenodd" clip-rule="evenodd" d="M55.133 33.1497C58.0099 36.0265 58.0099 40.6966 55.133 43.5734L55.0233 43.6813C53.5826 45.1166 51.7004 45.8342 49.8119 45.8342C47.9234 45.8342 46.042 45.1166 44.6005 43.6813L41.006 40.0868H29.9995V19.3266H41.006L44.6005 15.7331C46.042 14.2978 47.9234 13.5739 49.8119 13.5739C51.7004 13.5739 53.5826 14.2978 55.0233 15.7331L55.133 15.841C58.0099 18.7187 58.0099 23.3887 55.133 26.2647L51.6869 29.7036L55.133 33.1497Z" fill="#F8D82B"/>
<path fill-rule="evenodd" clip-rule="evenodd" d="M55.5179 29.7036L57.0413 28.1811C58.9505 26.2791 60 23.7467 60 21.0533C60 18.359 58.9505 15.8275 57.0413 13.9264L56.9397 13.8167C55.0377 11.9147 52.5062 10.8661 49.8119 10.8661C47.1176 10.8661 44.5861 11.9147 42.685 13.8167L39.8882 16.6198H29.9995V17.9741H40.4439L43.6454 14.7789C45.2902 13.1269 47.4836 12.2195 49.8119 12.2195C52.1402 12.2195 54.3335 13.1269 55.9783 14.7789L56.0872 14.8796C57.732 16.5316 58.6457 18.7241 58.6457 21.0533C58.6457 23.3816 57.732 25.5749 56.0872 27.2198L53.6024 29.7036L56.0872 32.1884C59.4919 35.5922 59.4919 41.13 56.0872 44.5276L55.9855 44.6364C54.3335 46.2812 52.1402 47.1877 49.8119 47.1877C47.4836 47.1877 45.2902 46.2812 43.6454 44.6364L40.4439 41.4412H29.9995V42.7946H39.8882L42.685 45.5905C44.5861 47.4997 47.1176 48.542 49.8119 48.542C52.5062 48.542 55.0377 47.4997 56.9397 45.5905L57.0413 45.4889C58.9505 43.5869 60 41.0554 60 38.3611C60 35.6668 58.9505 33.1362 57.0413 31.2342L55.5179 29.7036Z" fill="#EC982D"/>
<path fill-rule="evenodd" clip-rule="evenodd" d="M56.0872 32.1883C59.4919 35.5921 59.4919 41.13 56.0872 44.5275L55.9855 44.6363C54.3335 46.2811 52.1402 47.1876 49.8119 47.1876C47.4836 47.1876 45.2902 46.2811 43.6454 44.6363L40.4439 41.4411H29.9995V40.0868H41.006L44.6005 43.6813C46.042 45.1166 47.9234 45.8342 49.8119 45.8342C51.7004 45.8342 53.5826 45.1166 55.0233 43.6813L55.133 43.5734C58.0099 40.6965 58.0099 36.0265 55.133 33.1497L51.6869 29.7036L55.133 26.2647C58.0099 23.3887 58.0099 18.7187 55.133 15.8409L55.0233 15.733C53.5826 14.2978 51.7004 13.5738 49.8119 13.5738C47.9234 13.5738 46.042 14.2978 44.6005 15.733L41.006 19.3266H29.9995V17.9741H40.4439L43.6454 14.7789C45.2902 13.1269 47.4836 12.2195 49.8119 12.2195C52.1402 12.2195 54.3335 13.1269 55.9783 14.7789L56.0872 14.8796C57.732 16.5316 58.6457 18.7241 58.6457 21.0532C58.6457 23.3815 57.732 25.5749 56.0872 27.2197L53.6024 29.7036L56.0872 32.1883Z" fill="#FBE15B"/>
<path fill-rule="evenodd" clip-rule="evenodd" d="M29.9996 19.3266V40.0868H18.9868L15.3995 43.6813C13.957 45.1166 12.0694 45.8342 10.1872 45.8342C8.29779 45.8342 6.41017 45.1166 4.9749 43.6813L4.86698 43.5734C1.99014 40.6966 1.99014 36.0265 4.86698 33.1497L8.30498 29.7036L4.86698 26.2647C1.99014 23.3887 1.99014 18.7187 4.86698 15.841L4.9749 15.7331C6.41017 14.2978 8.29779 13.5739 10.1872 13.5739C12.0694 13.5739 13.957 14.2978 15.3995 15.7331L18.9868 19.3266H29.9996Z" fill="#FBE15B"/>
<path fill-rule="evenodd" clip-rule="evenodd" d="M4.86698 15.8409C1.99014 18.7187 1.99014 23.3887 4.86698 26.2647L8.30498 29.7036L4.86698 33.1497C1.99014 36.0265 1.99014 40.6965 4.86698 43.5734L4.9749 43.6813C6.41017 45.1166 8.29779 45.8342 10.1872 45.8342C12.0694 45.8342 13.957 45.1166 15.3995 43.6813L18.9868 40.0868H29.9996V41.4411H19.548L16.3528 44.6363C14.708 46.2811 12.5155 47.1876 10.1872 47.1876C7.85174 47.1876 5.66555 46.2811 4.01445 44.6363L3.90564 44.5275C0.507204 41.13 0.507204 35.5921 3.91193 32.1883L6.39668 29.7036L3.91193 27.2197C2.26083 25.5749 1.35344 23.3815 1.35344 21.0532C1.35344 18.7241 2.26083 16.5316 3.91193 14.8796L4.01445 14.7789C5.66555 13.1269 7.85174 12.2195 10.1872 12.2195C12.5155 12.2195 14.708 13.1269 16.3528 14.7789L19.548 17.9741H29.9996V19.3266H18.9868L15.3995 15.733C13.957 14.2978 12.0694 13.5738 10.1872 13.5738C8.29779 13.5738 6.41017 14.2978 4.9749 15.733L4.86698 15.8409Z" fill="#F8D82B"/>
<path fill-rule="evenodd" clip-rule="evenodd" d="M39.8495 34.6218L39.6292 33.8673C39.774 34.111 39.8495 34.361 39.8495 34.6218Z" fill="#F3BE27"/>
<path fill-rule="evenodd" clip-rule="evenodd" d="M24.9788 38.5428C24.3169 38.5428 23.736 38.2416 23.5003 37.3225L23.3133 36.5931C23.057 35.5931 23.4752 34.5311 24.3052 34.0733L25.513 33.4078C26.2531 32.9996 26.7954 32.2442 26.9923 31.3431L27.067 30.9995C27.3862 29.5436 28.5472 28.5193 29.8799 28.5193H29.9033V37.3737L29.8269 37.3764C28.6794 37.4151 27.5544 37.7074 26.4815 38.1705C26.0094 38.3747 25.4716 38.5428 24.9788 38.5428Z" fill="#F8C630"/>
<path fill-rule="evenodd" clip-rule="evenodd" d="M26.4914 28.5408C26.4914 28.5408 24.5579 28.101 24.5705 25.6333C24.5768 24.6073 25.5148 22.4391 26.9662 21.7142C27.2009 21.5964 27.4141 21.5479 27.6074 21.5479C28.6119 21.5479 29.0715 22.8752 29.0715 22.8752C29.0715 22.8752 29.1434 25.9958 29.0715 27.1567C28.9986 28.3186 26.4914 28.5408 26.4914 28.5408Z" fill="#F8C630"/>
<path fill-rule="evenodd" clip-rule="evenodd" d="M22.9464 33.2909C22.4617 33.2909 20.9949 33.1255 20.3124 31.1992C19.9697 30.2315 20.1181 27.8745 21.2368 26.7C21.5444 26.3772 21.8609 26.2603 22.1604 26.2603C22.9509 26.2603 23.6119 27.0786 23.6119 27.0786C23.6119 27.0786 24.7378 29.9905 25.0624 31.1074C25.388 32.2244 23.1047 33.2837 23.1047 33.2837C23.1047 33.2837 23.0471 33.2909 22.9464 33.2909Z" fill="#F8C630"/>
<path fill-rule="evenodd" clip-rule="evenodd" d="M34.827 38.5428C34.3341 38.5428 33.7964 38.3746 33.3242 38.1705C32.2586 37.71 31.1407 37.4178 29.9995 37.3773V28.5201C31.3017 28.557 32.4258 29.5705 32.7388 30.9995L32.8134 31.343C33.0113 32.2441 33.5527 32.9995 34.2937 33.4078L35.4996 34.0733C36.3306 34.531 36.7487 35.5931 36.4933 36.5931L36.3054 37.3224C36.0698 38.2415 35.4888 38.5428 34.827 38.5428Z" fill="#F3BE27"/>
<path fill-rule="evenodd" clip-rule="evenodd" d="M29.9995 37.3773C29.9932 37.3764 29.9861 37.3764 29.9798 37.3764L29.9033 37.3737V28.5193H29.9258C29.951 28.5193 29.9753 28.5193 29.9995 28.5202V37.3773Z" fill="#F8C630"/>
<path fill-rule="evenodd" clip-rule="evenodd" d="M33.3144 28.5408C33.3144 28.5408 30.808 28.3186 30.7352 27.1567C30.6623 25.9958 30.7352 22.8752 30.7352 22.8752C30.7352 22.8752 31.1947 21.5479 32.1992 21.5479C32.3926 21.5479 32.6057 21.5964 32.8395 21.7142C34.2919 22.4391 35.2299 24.6073 35.2343 25.6333C35.2478 28.101 33.3144 28.5408 33.3144 28.5408Z" fill="#F3BE27"/>
<path fill-rule="evenodd" clip-rule="evenodd" d="M36.8603 33.2909C36.7595 33.2909 36.7011 33.2837 36.7011 33.2837C36.7011 33.2837 34.4178 32.2244 34.7433 31.1074C35.0689 29.9905 36.1948 27.0786 36.1948 27.0786C36.1948 27.0786 36.8549 26.2603 37.6453 26.2603C37.9439 26.2603 38.2614 26.3772 38.5689 26.7C39.6885 27.8745 39.8369 30.2315 39.4934 31.1992C38.8108 33.1255 37.3441 33.2909 36.8603 33.2909Z" fill="#F3BE27"/>
</svg>
