<svg width="71" height="71" viewBox="0 0 71 71" fill="none" xmlns="http://www.w3.org/2000/svg">
<g clip-path="url(#clip0_1_1475)">
<circle cx="35.7988" cy="35.3611" r="35" fill="#EBF1FA"/>
<path d="M38.291 31.3611C37.1191 31.3611 32.0215 31.4783 28.7988 36.4001V31.3611C28.7988 28.3142 26.2207 25.7361 23.1738 25.7361C22.1191 25.7361 21.2988 26.615 21.2988 27.6111C21.2988 28.6658 22.1191 29.4861 23.1738 29.4861C24.1699 29.4861 25.0488 30.365 25.0488 31.3611V46.3611C25.0488 48.4705 26.6895 50.1111 28.7988 50.1111H39.1113C39.5801 50.1111 40.0488 49.7009 40.0488 49.1736V48.2361C40.0488 47.24 39.1699 46.3611 38.1738 46.3611H36.2988L43.7988 40.7361V49.1736C43.7988 49.7009 44.209 50.1111 44.7363 50.1111H46.6113C47.0801 50.1111 47.5488 49.7009 47.5488 49.1736V37.1033C46.9043 37.2791 46.3184 37.3962 45.6738 37.3962C42.041 37.3962 38.9941 34.8181 38.291 31.3611ZM47.5488 25.7361H43.7988L40.0488 21.9861V29.8962C40.0488 33.0017 42.5098 35.5212 45.6738 35.5212C48.7793 35.5212 51.2988 33.0017 51.2988 29.8962V21.9861L47.5488 25.7361ZM43.3301 30.4236C42.8027 30.4236 42.3926 30.0134 42.3926 29.4861C42.3926 29.0173 42.8027 28.5486 43.3301 28.5486C43.7988 28.5486 44.2676 29.0173 44.2676 29.4861C44.2676 30.0134 43.7988 30.4236 43.3301 30.4236ZM48.0176 30.4236C47.4902 30.4236 47.0801 30.0134 47.0801 29.4861C47.0801 29.0173 47.4902 28.5486 48.0176 28.5486C48.4863 28.5486 48.9551 29.0173 48.9551 29.4861C48.9551 30.0134 48.4863 30.4236 48.0176 30.4236Z" fill="#193A6A"/>
</g>
<defs>
<clipPath id="clip0_1_1475">
<rect width="70" height="70" fill="white" transform="translate(0.798828 0.361084)"/>
</clipPath>
</defs>
</svg>
