<svg width="26" height="22" viewBox="0 0 26 22" fill="none" xmlns="http://www.w3.org/2000/svg">
<path d="M23.3086 5.96875C24.3242 5.20703 25.2383 4.29297 25.9492 3.22656C25.0352 3.63281 23.9688 3.9375 22.9023 4.03906C24.0195 3.37891 24.832 2.36328 25.2383 1.09375C24.2227 1.70312 23.0547 2.16016 21.8867 2.41406C20.8711 1.34766 19.5 0.738281 17.9766 0.738281C15.0312 0.738281 12.6445 3.125 12.6445 6.07031C12.6445 6.47656 12.6953 6.88281 12.7969 7.28906C8.37891 7.03516 4.41797 4.90234 1.77734 1.70312C1.32031 2.46484 1.06641 3.37891 1.06641 4.39453C1.06641 6.22266 1.98047 7.84766 3.45312 8.8125C2.58984 8.76172 1.72656 8.55859 1.01562 8.15234V8.20312C1.01562 10.793 2.84375 12.9258 5.28125 13.4336C4.875 13.5352 4.36719 13.6367 3.91016 13.6367C3.55469 13.6367 3.25 13.5859 2.89453 13.5352C3.55469 15.668 5.53516 17.1914 7.87109 17.2422C6.04297 18.6641 3.75781 19.5273 1.26953 19.5273C0.8125 19.5273 0.40625 19.4766 0 19.4258C2.33594 20.9492 5.12891 21.8125 8.17578 21.8125C17.9766 21.8125 23.3086 13.7383 23.3086 6.67969C23.3086 6.42578 23.3086 6.22266 23.3086 5.96875Z" fill="#193A6A"/>
</svg>
