<svg width="23" height="24" viewBox="0 0 23 24" fill="none" xmlns="http://www.w3.org/2000/svg">
<path d="M19.5469 4.22656C17.4648 2.09375 14.6211 0.875 11.5742 0.875C5.37891 0.875 0.300781 5.95312 0.300781 12.1484C0.300781 14.1797 0.859375 16.1094 1.82422 17.7852L0.25 23.625L6.19141 22.1016C7.86719 22.9648 9.69531 23.4727 11.5742 23.4727C17.8203 23.4727 23 18.3945 23 12.1992C23 9.15234 21.6797 6.35938 19.5469 4.22656ZM11.5742 21.543C9.89844 21.543 8.27344 21.0859 6.80078 20.2227L6.49609 20.0195L2.94141 20.9844L3.90625 17.5312L3.65234 17.1758C2.73828 15.6523 2.23047 13.9258 2.23047 12.1484C2.23047 7.01953 6.44531 2.80469 11.625 2.80469C14.1133 2.80469 16.4492 3.76953 18.2266 5.54688C20.0039 7.32422 21.0703 9.66016 21.0703 12.1992C21.0703 17.3281 16.7539 21.543 11.5742 21.543ZM16.7539 14.5352C16.4492 14.3828 15.0781 13.7227 14.8242 13.6211C14.5703 13.5195 14.3672 13.4688 14.1641 13.7734C14.0117 14.0273 13.4531 14.6875 13.3008 14.8906C13.0977 15.043 12.9453 15.0938 12.6914 14.9414C11.0156 14.1289 9.94922 13.4688 8.83203 11.5898C8.52734 11.082 9.13672 11.1328 9.64453 10.0664C9.74609 9.86328 9.69531 9.71094 9.64453 9.55859C9.59375 9.40625 8.98438 8.03516 8.78125 7.47656C8.52734 6.91797 8.32422 6.96875 8.12109 6.96875C7.96875 6.96875 7.76562 6.96875 7.61328 6.96875C7.41016 6.96875 7.10547 7.01953 6.85156 7.32422C6.59766 7.62891 5.88672 8.28906 5.88672 9.66016C5.88672 11.082 6.85156 12.4023 7.00391 12.6055C7.15625 12.7578 8.98438 15.6016 11.8281 16.8203C13.6055 17.6328 14.3164 17.6836 15.2305 17.5312C15.7383 17.4805 16.8555 16.8711 17.1094 16.2109C17.3633 15.5508 17.3633 14.9922 17.2617 14.8906C17.2109 14.7383 17.0078 14.6875 16.7539 14.5352Z" fill="#193A6A"/>
</svg>
